<svg xmlns:rdf="http://www.w3.org/1999/02/22-rdf-syntax-ns#" xmlns="http://www.w3.org/2000/svg" height="64px" width="64px" version="1.1" xmlns:cc="http://creativecommons.org/ns#" xmlns:dc="http://purl.org/dc/elements/1.1/">
 <g transform="matrix(1.43 0 0 1.43 -.175 .53715)">
  <g stroke-linejoin="round" stroke="#303042" stroke-linecap="butt" stroke-miterlimit="4" stroke-dasharray="none" stroke-width="1.5" fill="#2b2b3c">
   <path d="m9 36c3.3853-.97233 10.115.43082 13.5-2 3.3853 2.4308 10.115 1.0277 13.5 2 0 0 1.6459.54151 3 2-.67705.97233-1.6459.98616-3 .5-3.3853-.97233-10.115.45849-13.5-1-3.385 1.458-10.115.028-13.5 1-1.3541.486-2.3229.472-3-.5 1.3541-1.945 3-2 3-2z" fill-rule="evenodd"/>
   <path d="m15 32c2.5 2.5 12.5 2.5 15 0 .5-1.5 0-2 0-2 0-2.5-2.5-4-2.5-4 5.5-1.5 6-11.5-5-15.5-11 4-10.5 14-5 15.5 0 0-2.5 1.5-2.5 4 0 0-.5.5 0 2z" fill-rule="evenodd"/>
   <path d="m25 10c0 1.3807-1.1193 2.5-2.5 2.5-1.381 0-2.5-1.119-2.5-2.5 0-1.3807 1.119-2.5 2.5-2.5s2.5 1.1193 2.5 2.5z" transform="translate(0,-2)"/>
  </g>
  <g stroke-linejoin="miter" stroke="#fff" stroke-linecap="round" stroke-miterlimit="4" stroke-dasharray="none" stroke-width="1.5" fill="none">
   <path d="m17.5 26h10"/>
   <path d="m15 30h15"/>
   <path d="m22.5 15.5v5"/>
   <path d="m20 18h5"/>
  </g>
  <path d="m14.296 29.582c-.01322-.29527.23844-1.1434.49304-1.6615.25761-.52425.57184-.96922 1.0239-1.45.17055-.18135.22975-.28332.17597-.30306-.20115-.07384-1.075-.77787-1.3461-1.0845-.70641-.79901-1.1626-1.6727-1.4638-2.8032-.14110-.52972-.16008-.72742-.16548-1.7234-.0069-1.2638.10025-1.9169.49176-2.9984.99075-2.737 3.3523-5.2011 6.4709-6.7519.25781-.12820.47727-.24066.48767-.24990.01041-.0092-.11963-.16132-.28898-.33794-1.6441-1.7148-.92015-4.5248 1.3638-5.2937.47423-.15965 1.4641-.15949 1.9375.0003197.98026.33092 1.7711 1.1217 2.1006 2.1003.15947.47366.15948 1.4638.000011 1.9375-.16727.49685-.42760.93067-.76206 1.2699-.16095.16326-.28188.30527-.26873.31558s.33328.18081.71141.37889c2.6492 1.3878 4.6682 3.3348 5.7727 5.5668.70204 1.4187.96359 2.487.97162 3.9688.0055 1.0186-.08171 1.6153-.35135 2.4033-.42662 1.2467-1.2693 2.3806-2.268 3.0516-.20625.13858-.38614.26110-.39976.27226s.08984.14463.22991.29659c.84292.91446 1.3047 1.8395 1.485 2.9748l.04443.27979-.16874-.20054c-.09281-.11030-.27214-.23058-.39851-.26730-.15896-.04619-2.5706-.06098-7.826-.048l-7.5963.01876-.19596.15625c-.10778.08594-.20885.19844-.22461.25s-.03192.0209-.0359-.06813zm13.716-3.0716c.17637-.19247.21393-.28216.21393-.51083 0-.34352-.21667-.62905-.55148-.72676-.15770-.04602-1.8283-.06108-5.326-.048l-5.0963.01905-.19210.15625c-.45379.36911-.39153 1.019.12207 1.2743.17886.08888.75266.09784 5.408.08446l5.2079-.01496.21393-.23346zm-5.0907-5.3967c.28234-.14420.36712-.48122.36712-1.4594v-.86824l1.0049-.02112 1.0049-.02112.21384-.23346c.17538-.19146.21384-.28270.21384-.50720 0-.18617-.04334-.32884-.13549-.44599-.22653-.28798-.45974-.34460-1.4194-.34460h-.87140l-.02124-.95607c-.0174-.78358-.04112-.98639-.13148-1.1241-.33225-.50648-1.0353-.49341-1.2993.02416-.10397.20380-.12171.37004-.12171 1.1408v.90219l-.98691.02217c-.94362.0212-.99534.02903-1.179.17842-.45807.37259-.39019 1.028.13214 1.2759.16092.07636.41726.09913 1.1158.09913h.90694l.02112.98606c.01972.92070.03075.99830.16646 1.1707.26262.33357.60284.39431 1.0188.18189z" fill="#000"/>
  <path d="m6.8332 39.461c-.7320-.184-1.5448-.947-1.5448-1.45 0-.62031 1.365-1.9593 2.4635-2.4167.54924-.22865 2.0658-.53923 3.0677-.62827.4125-.03666 1.9172-.09423 3.3438-.12794s2.9453-.09052 3.375-.12624c.69790-.05801 1.8743-.22720 1.9238-.27666.01039-.01039-.25648-.06655-.59306-.12479-1.7552-.30373-3.3529-.90507-4.0985-1.5425-.36639-.31326-.50519-.57534-.63336-1.1959-.11742-.56845-.12360-.86299-.02747-1.3089.06583-.30543.07606-.31904.13147-.17495.12638.32867.23167.46909.43279.57718.19720 0.106.61128.11099 7.91.09546l7.7019-.01639.19966-.19967c.13720-.13720.21224-.28384.23987-.46875l.04022-.26908.08506.28125c.18020.59583.04112 1.8067-.26466 2.304-.27446.44641-1.3446 1.0689-2.4853 1.4458-.32656.10788-1.0361.28398-1.5766.39134-.54059.10736-.97622.20187-.96805.21003.0082.0082.26765.05823.57665.11126.91657.15730 1.9785.22256 4.6868.28804 4.4705.10809 5.3271.25062 6.7898 1.1297.59469.35742 1.0576.70449 1.5696 1.1768.60485.55799.67990.84582.35029 1.3434-.25899.39101-.73879.74428-1.2409.91368-0.344.11606-.49723.13208-1 .10454-.32656-.01788-.74844-.07741-.9375-.13228-1.584-.45973-1.805-.47583-6.4888-.47269-3.7805.0025-4.6028-.02551-5.6674-.19324-.52884-.08332-1.3879-.29366-1.5469-.37876-.0832-.04453-.21598-.02696-.47575.06294-.46241.16003-1.5456.36256-2.3836.4457-.38266.03796-2.3403.06427-4.6956.06311-4.4729-.0022-4.9191.02545-6.1169.37921-.71359.21076-1.6942.29336-2.1427.18051z" fill="#000"/>
 </g>
</svg>
