<svg xmlns:rdf="http://www.w3.org/1999/02/22-rdf-syntax-ns#" xmlns="http://www.w3.org/2000/svg" height="64px" width="64px" version="1.1" xmlns:cc="http://creativecommons.org/ns#" xmlns:dc="http://purl.org/dc/elements/1.1/">
 <g transform="matrix(1.43 0 0 1.43 -.175 .2715)">
  <g stroke-linejoin="round" stroke="#303042" fill="#2b2b3c">
   <g stroke-linecap="round" stroke-miterlimit="4" stroke-dasharray="none" stroke-width="1">
    <path d="m9 13c0 1.1046-.89543 2-2 2s-2-.89543-2-2 .89543-2 2-2 2 .89543 2 2z" transform="translate(-1,-1)"/>
    <path d="m9 13c0 1.1046-.89543 2-2 2s-2-.89543-2-2 .89543-2 2-2 2 .89543 2 2z" transform="translate(15.5,-5.5)"/>
    <path d="m9 13c0 1.1046-.89543 2-2 2s-2-.89543-2-2 .89543-2 2-2 2 .89543 2 2z" transform="translate(32,-1)"/>
    <path d="m9 13c0 1.1046-.89543 2-2 2s-2-.89543-2-2 .89543-2 2-2 2 .89543 2 2z" transform="translate(7,-4.5)"/>
    <path d="m9 13c0 1.1046-.89543 2-2 2s-2-.89543-2-2 .89543-2 2-2 2 .89543 2 2z" transform="translate(24,-4)"/>
   </g>
   <path d="m9 26c8.5-1.5 21-1.5 27 0l2-12-7 11v-14l-5.5 13.5-3-15-3 15-5.5-14v14.5l-7-11 2 12z" fill-rule="evenodd" stroke-linecap="butt" stroke-width="1px"/>
   <path d="m9 26c0 2 1.5 2 2.5 4 1 1.5 1 1 .5 3.5-1.5 1-1.5 2.5-1.5 2.5-1.5 1.5.5 2.5.5 2.5 6.5 1 16.5 1 23 0 0 0 1.5-1 0-2.5 0 0 .5-1.5-1-2.5-.5-2.5-.5-2 .5-3.5 1-2 2.5-2 2.5-4-8.5-1.5-18.5-1.5-27 0z" fill-rule="evenodd" stroke-linecap="butt" stroke-width="1px"/>
  </g>
  <g stroke-linejoin="round" stroke="#fff" stroke-linecap="round" stroke-width="1px" fill="none">
   <path d="m11.5 30c3.5-1 18.5-1 22 0"/>
   <path d="m12 33.5c6-1 15-1 21 0"/>
   <path d="m10.5 36c5-1 18.5-1 23.5 0"/>
  </g>
  <g fill="#000">
   <path d="m10.749 29.702c-.091-.156-.508-.641-.9275-1.078-.8735-.912-1.1309-1.328-1.2304-1.989-.0358-.237-.5005-3.068-1.0327-6.29-.5323-3.222-.9677-5.873-.9677-5.891 0-.01801-.14766-.01555-.32812.0055-.7465.086-1.5396-.219-2.0799-.801-.4653-.502-.6177-.913-.6208-1.674-.0022-.520.0190-.640.1684-.959.3228-.689.8248-1.1455 1.5121-1.3757.3831-.1282 1.0914-.1323 1.4993-.0085 1.0161.3082 1.7252 1.2832 1.7233 2.3702-.0011.647-.2109 1.177-.6548 1.654l-.26707.28705 2.9456 4.6377c1.6201 2.5507 2.9667 4.639 2.9925 4.6406.02578.0016.04687-2.7629.04687-6.1434v-6.1464l-.24271-.07272c-.665-.199-1.327-0.8-1.578-1.4314-.112-.2828-.143-.4854-.145-.9529-.0021-.51927.01899-.63950.16843-.95849.32278-.68899.82474-1.1457 1.5121-1.3759.38301-.12824 1.0914-.13229 1.4992-.00858 1.0161.30824 1.7253 1.2835 1.7234 2.3699-.0017.94305-.57472 1.8397-1.4251 2.2298-.17835.08182-.32426.17405-.32426.20496 0 .09688 4.5826 11.726 4.6208 11.726.02593 0 2.1489-10.477 2.5484-12.577.02746-.14430.0048-.18092-.14646-.23651-.689-.2536-1.289-0.81-1.531-1.4192-.113-.2853-.144-.4868-.146-.9553-.0021-.51927.01899-.63950.16843-.95849.32278-.68899.82474-1.1457 1.5121-1.3759.38301-.12824 1.0914-.13229 1.4992-.00858 1.0161.30824 1.7253 1.2835 1.7234 2.3699-.0012.68144-.26060 1.2839-.75996 1.765-.26645.25673-.80579 0.583-.96373 0.583-.04441 0-.09795.027826-.11897.061835-.04139.066974 2.459 12.688 2.5297 12.768.03592.04106 4.5159-10.848 4.6023-11.186.02235-.08753-.05769-.15493-.35476-.29878-.492-.238-.996-.773-1.191-1.265-.113-.2853-.144-.4868-.146-.9553-.0021-.51927.01899-.63950.16843-.95849.32278-.68899.82474-1.1457 1.5121-1.3759.38301-.12824 1.0914-.13229 1.4992-.00858 1.0161.30824 1.7253 1.2835 1.7234 2.3699-.0012.65550-.21096 1.1787-.66889 1.6683-.31562.33743-.67070.56510-1.0648.68273l-.26562.07928v5.8964c0 3.243.02109 5.8955.04687 5.8944s1.3728-2.0886 2.9934-4.639l2.9466-4.6371-.30153-.32992c-.43304-.47382-.58610-.90040-.58916-1.642-.0021-.51927.01899-.63950.16843-.95849.32278-.68899.82474-1.1457 1.5121-1.3759.38301-.12824 1.0914-.13229 1.4992-.00858 1.0161.30824 1.7253 1.2835 1.7234 2.3699-.0012.65550-.21096 1.1787-.66889 1.6683-.53259.56938-1.2645.85435-2.0007.77893-.21574-.0221-.39226-.02474-.39226-.0059 0 .01887-.40955 2.4876-.91011 5.4861s-.94920 5.7632-.99698 6.1439c-.15212 1.2119-.28776 1.4676-1.3767 2.5956-.38503.39882-.77666.85586-.87030 1.0156-.15774.26917-.28336.33133-.28336.14023 0-.14024-.22658-.29237-.57184-.38394-3.2348-.85796-16.417-.95271-21.022-.1511-1.0216.17784-1.1459.22315-1.292.47075-.06962 0.118-.13520.21454-.14572.21454-.01053 0-.09374-.12730-.18492-.28288z"/>
   <path d="m11.591 33.127c.000104-.02657.05635-.33760.125-.69116.17327-.89242.16526-.99370-.11277-1.4256-.13067-.20299-.25716-.40141-.28108-.44094-.0292-.04826.02318-.07227.15946-.07309.11162-.000667.34358-.03371.51545-.07343 1.7326-.40037 5.5123-.62404 10.531-.62319 4.9745.000835 8.8322.23020 10.469.62243.1375.03296.35547.06059.48438.06141s.23438.0143.23438.02997c0 .01566-.11195.18829-.24879.38363-.13683.19534-.26563.44493-.28621.55466-.02059.10973.02106.51969.09254.91103.15915.87133.15974.83135-.01066.72398-.22791-.14360-1.5448-.32932-3.7969-.53548-2.4356-.22296-3.8484-.27965-6.9688-.27965-1.7308 0-3.6196.03406-4.3438.07832-3.012.18412-6.1128.53950-6.4219.73601-.07734.04917-.14054.06766-.14044.04109z"/>
   <path d="m34.475 35.849c-.01515-.17912-0.305-.34823-.72104-.42068-4.8079-.83726-16.153-.92176-21.904-.16314-1.2634.16665-1.5199.22538-1.679.38451l-.14787.14787.04132-.23436c.11902-.67517.59360-1.5232 1.128-2.0157l.30510-.28117.03125.23335c.07037.52548.22565.56122 1.5719.36181 4.3381-.64256 11.364-.74982 16.608-.25354.73486.06955 1.7192.18270 2.1875.25145.46826.06875.94982.12452 1.0701.12395.31450-.0015.51026-.17380.51826-.45610.0036-.12632.02548-.22967.04866-.22967.10957 0 .58829.61305.75213.96316.19802.42317.29883 1.0373.23686 1.4431-.021.1375-.04217.20282-.04705.14516z"/>
   <path d="m20.028 39.698c-3.3823-.10627-6.6636-.36079-8.9062-.69083-.33639-.0495-.73862-.28826-1.0764-.6389-.35437-.36789-.51941-.68992-.56083-1.0943-.041447-.40464.048263-.73792.30514-1.1336l.20225-.31154.033666.20210c.01852.11115.08589.26264.14971.33663.10460.12126.15701.13065.53125.09521.22836-.02163.68239-.08147 1.009-.13298 4.6828-.73860 17.031-.70192 21.5.06387.91990.15762 1.1485.10406 1.2875-.30165l.06875-.20067.19939.3125c.25375.39769.40451.91209.36640 1.2502-.04296.38115-.30871.91774-.59757 1.2066-.19291.19291-.32780.26642-.58450.31853-.98462.19989-4.2679.51095-6.6462.62968-1.3512.06745-6.1157.12582-7.2812.0892z"/>
  </g>
 </g>
</svg>
