<svg xmlns:rdf="http://www.w3.org/1999/02/22-rdf-syntax-ns#" xmlns="http://www.w3.org/2000/svg" height="64px" width="64px" version="1.1" xmlns:cc="http://creativecommons.org/ns#" xmlns:dc="http://purl.org/dc/elements/1.1/">
 <g transform="translate(0 21.592)">
  <path stroke-linejoin="miter" d="m32-8.8075c-3.1574 0-5.72 2.5626-5.72 5.72 0 1.2657.42038 2.4485 1.1172 3.3962-2.7913 1.6043-4.6922 4.5953-4.6922 8.0438 0 2.9085 1.3471 5.4899 3.4409 7.1947-4.2888 1.5128-10.591 7.9319-10.591 19.26h32.89c0-11.328-6.3022-17.748-10.591-19.26 2.0938-1.7048 3.4409-4.2861 3.4409-7.1947 0-3.4485-1.9009-6.4394-4.6922-8.0438.69681-.94777 1.1172-2.1306 1.1172-3.3962 0-3.1574-2.5626-5.72-5.72-5.72z" fill-rule="nonzero" stroke-dashoffset="10" stroke="#303042" stroke-linecap="round" stroke-miterlimit="4" stroke-dasharray="none" stroke-width="1.43" fill="#2b2b3c"/>
  <path fill="#000" d="m14.891 34.322c0-2.1818.42494-5.0455 1.0884-7.335 1.3413-4.6286 4.4966-9.0445 7.9129-11.074.49156-.29206.91226-.54330.93488-.55830.0226-.015-.25433-.39181-.61543-.83734-.74299-.91670-1.5429-2.4823-1.849-3.619-.71382-2.6505-.16566-5.8265 1.4015-8.1201.54849-.80275 1.6893-1.99 2.3484-2.4438l.30511-.21012-.27118-.67772c-.58626-1.4651-.66397-3.0256-.22227-4.4631.64264-2.0914 2.3356-3.6901 4.4981-4.2476 5.105-1.3162 9.4194 3.7412 7.4309 8.7107l-.27118.67772.30511.21012c.65903.45384 1.7999 1.6411 2.3484 2.4438 1.5547 2.2754 2.1073 5.4769 1.4016 8.1201-.29616 1.1093-1.1153 2.7036-1.8709 3.6412-.4219.52358-.59812.83364-.49359.86848.0894.0298.66614.39102 1.2816.80269 3.8833 2.5975 6.8439 7.3597 7.9809 12.838.30667 1.4774.57117 3.9019.57244 5.2472l.0010 1.181h-17.109-17.109v-1.1541z"/>
 </g>
</svg>
