<svg xmlns:rdf="http://www.w3.org/1999/02/22-rdf-syntax-ns#" xmlns="http://www.w3.org/2000/svg" height="64px" width="64px" version="1.1" xmlns:cc="http://creativecommons.org/ns#" xmlns:dc="http://purl.org/dc/elements/1.1/">
 <g transform="matrix(1.43 0 0 1.43 -.16874 .26415)">
  <g fill-rule="evenodd" stroke="#303042" stroke-linecap="butt" stroke-miterlimit="4" stroke-dasharray="none" stroke-width="1.5" fill="#2b2b3c">
   <g stroke-linejoin="round">
    <path d="m9 39h27v-3h-27v3z"/>
    <path d="m12.5 32 1.5-2.5h17l1.5 2.5h-20z"/>
    <path d="m12 36v-4h21v4h-21z"/>
   </g>
   <path stroke-linejoin="miter" d="m14 29.5v-13h17v13h-17z"/>
   <path stroke-linejoin="round" d="m14 16.5-3-2.5h23l-3 2.5h-17z"/>
   <path stroke-linejoin="round" d="m11 14v-5h4v2h5v-2h5v2h5v-2h4v5h-23z"/>
  </g>
  <g stroke-linejoin="miter" stroke="#fff" stroke-linecap="round" stroke-width="1px" fill="none">
   <path d="m12 35.5h21"/>
   <path d="m13 31.5h19"/>
   <path d="m14 29.5h17"/>
   <path d="m14 16.5h17"/>
   <path d="m11 14h23"/>
  </g>
  <path d="m8.741 39.649c-.11787-.0601-.27256-.18861-.34375-.28557-.12072-.16442-.13086-.27597-.15041-1.6562-.024652-1.7397.020768-2.0607.32205-2.2756.18795-.13406.26706-.14301 1.4333-.16221l1.2344-.02032v-1.5614c0-.94842.02757-1.6709.07023-1.8403.07689-.30536.26777-.48258.59639-.55372.17538-.03796.26242-.15110.76562-.99515l.56775-.95232v-6.2613-6.2613l-1.3594-1.1314c-.74766-.62225-1.4156-1.2058-1.4844-1.2968-.11932-.15789-.12592-.27904-.14518-2.6668-.02282-2.829.000494-3.0682.32125-3.297.19622-.13996.22824-.14215 2.3504-.16062 2.283-.019869 2.367-.011002 2.6393.27874.13477.14342.14860.21981.16885.93247l.02205.77625h1.7436 1.7436v-.56607c0-.75643.08769-1.0863.33586-1.2633.19369-.13816.21846-.13953 2.8481-.15759 2.8107-.019301 2.8628-.014682 3.138.27824.13477.14342.14860.21981.16885.93247l.02205.77625h1.7436 1.7436v-.56607c0-.75643.08769-1.0863.33586-1.2633.19167-.13672.23636-.13973 2.3468-.15810 2.283-.019869 2.367-.011 2.6393.27872l.14680.15620.0181 2.7032c.01131 1.6898-.0052 2.7646-.04416 2.867-.03684.0969-.65024 0.654-1.5025 1.3646l-1.4402 1.2008.000125 6.2241.000125 6.2241.57801.95990c.53024.88056.59825.96678.82281 1.0431.13464.04576.31745.15580.40625.24454l.16145.16135.0192 1.7799.01919 1.7799h1.187c1.256 0 1.3897.02533 1.6497.31263.11862.13104.12485.22632.12485 1.908 0 1.6986-.0053 1.7772-.13085 1.9466-.07197.09708-.22666.21008-.34375.25111-.16233.05687-3.4285.07541-13.744.07803-12.763.0032-13.543-.0028-13.746-.10585zm24.614-3.7908c.18561-.16798.17521-.49922-.02185-.69628l-.15341-.15341h-10.663c-6.7068 0-10.705.0223-10.776.06011-.06178.03306-.14771.14556-.19097.25-.09641.23275-.0018.51468.20658.61588.09442.04585 3.4063.06254 10.801.05444 10.392-.01138 10.669-.01474 10.797-.13074zm-1-4c.18560-.16798.17521-.49922-.02185-.69628l-.15341-.15341h-9.6632c-6.0666 0-9.705.02237-9.7755.06011-.06178.03306-.14771.14556-.19097.25-.0964.23274-.0018.51466.20658.61591.09432.04582 3.1068.06255 9.8015.05444 9.4082-.0114 9.6688-.01488 9.7969-.13077zm-1-2c.18560-.16798.17521-.49922-.02186-.69628l-.15341-.15341h-8.6632c-5.4265 0-8.7052.02246-8.7755.06011-.06178.03306-.14771.14556-.19097.25-.0964.23274-.0019.51464.20658.61594.0942.04579 2.8073.06257 8.8015.05444 8.4248-.01142 8.669-.01505 8.7969-.13081zm0-13c.18560-.16798.17521-.49922-.02186-.69628l-.15341-.15341h-8.6632c-5.4265 0-8.7052.02246-8.7755.06011-.06178.03306-.14771.14556-.19097.25-.0964.23274-.0019.51464.20658.61594.0942.04579 2.8073.06257 8.8015.05444 8.4248-.01142 8.669-.01505 8.7969-.13081zm3-2.5c.18561-.16798.17521-.49922-.02185-.69628l-.15341-.15341h-11.663c-7.347 0-11.705.02224-11.776.06011-.06178.03306-.14771.14556-.19097.25-.09641.23275-.0018.51469.20658.61586.0945.04587 3.7058.06253 11.801.05444 11.375-.01137 11.669-.01462 11.797-.13072z" fill="#000"/>
 </g>
</svg>
