<svg xmlns:rdf="http://www.w3.org/1999/02/22-rdf-syntax-ns#" xmlns="http://www.w3.org/2000/svg" height="64px" width="64px" version="1.1" xmlns:cc="http://creativecommons.org/ns#" xmlns:dc="http://purl.org/dc/elements/1.1/">
 <g transform="matrix(1.43 0 0 1.43 .51485 .629)">
  <g stroke-linecap="round" fill="#2b2b3c">
   <path stroke-linejoin="miter" d="m22 10c10.5 1 16.5 8 16 29h-23c0-9 10-6.5 8-21" fill-rule="evenodd" stroke="#303042" stroke-width="1px"/>
   <g stroke-linejoin="round">
    <path d="m24 18c.38446 2.9113-5.5529 7.3686-8 9-3 2-2.8192 4.3429-5 4-1.0417-.94402 1.4134-3.0375 0-3-1 0 .18733 1.2317-1 2-1 0-4.0032 1-4-4 0-2 6-12 6-12s1.8859-1.9021 2-3.5c-.72605-.99437-.5-2-.5-3 1-1 3 2.5 3 2.5h2s.78178-1.9919 2.5-3c1 0 1 3 1 3" fill-rule="evenodd" stroke="#303042" stroke-width="1px"/>
    <path d="m9 23.5c0 .276-.2239.5-.5.5s-.5-.224-.5-.5.2239-.5.5-.5.5.224.5.5z" transform="translate(.5 2)" stroke="#fff" stroke-miterlimit="4" stroke-dasharray="none" stroke-width="1"/>
    <path d="m15 15.5c0 .828-.224 1.5-.5 1.5s-.5-.672-.5-1.5.224-1.5.5-1.5c.27614 0 .5.67157.5 1.5z" transform="matrix(.86602 .5 -.5 .86602 9.6926 -5.1734)" stroke="#fff" stroke-miterlimit="4" stroke-dasharray="none" stroke-width="1"/>
   </g>
  </g>
  <path d="m24.55 10.4-.3 1.1.55.1c3.1015.47715 6.3235 2.2342 8.575 6.4938 2.251 4.259 2.922 10.963 2.425 20.906l-.05.5h1.75v-.5c.503-10.057-.876-16.853-3.25-21.344-2.374-4.49-5.789-6.633-9.188-7.156l-.512-0.1z" fill-rule="evenodd" fill="#fff"/>
  <path d="m14.568 38.46c.13635-1.7962.55884-3.1524 1.3846-4.4445.23313-.36480 1.3123-1.5794 2.3982-2.6991 1.9942-2.0562 2.8939-3.2268 3.4546-4.4946.44657-1.0098.79940-2.508.89024-3.7803l.07945-1.1128-1.1085 1.0751c-1.509 1.4636-2.5769 2.3508-4.421 3.6732-1.7 1.2191-2.5444 2.0065-3.665 3.4179-.77523.97638-1.4219 1.3884-2.187 1.3935-.57528.0038-.85546-.17683-1.0121-.65254l-.13407-.40721-1.032.04174c-1.2543.050-1.8367-.110-2.4634-.676-.6189-.559-.9914-1.445-1.1343-2.698-.1398-1.225-.0267-1.826.6340-3.372 1.1531-2.698 4.8588-9.359 5.9718-10.734.36165-.44688.80326-1.1202.98135-1.4964.32136-.67871.32216-.68814.10683-1.25-.11934-.31137-.24652-1.0767-.28263-1.7008-.06502-1.1237-.06232-1.1373.27960-1.4062.18989-.14937.50205-.27158.69369-.27158.49890 0 1.3194.67319 2.1009 1.7237l.67054.90134h.73317.73317l.27050-.53125c.14878-.29219.67794-.93906 1.1759-1.4375.78156-.78227.96569-.90625 1.3459-.90625.33503 0 .51532.088914.75297.37135.30472.36214.58282 1.3.58667 1.9786.0029.50804.12709.61736.81059.71345 6.8824.96749 11.352 4.9764 13.518 12.124 1.1232 3.707 1.6279 7.6879 1.7552 13.844l.07948 3.8438h-.50036-.50036l.06018-3.1268c.125-6.498-.568-11.665-2.148-16.032-1.71-4.723-4.734-8.075-8.449-9.365-.53233-.18485-2.2156-.60225-2.4287-.60225-.08352 0-.32899 1.016-.26894 1.1131.03671.0594.33074.14759.65339.19598 2.4358.36527 5.1291 1.9358 6.7034 3.9089 3.0617 3.8373 4.2122 8.6944 4.2118 17.782-.000075 2.0281-.03645 4.2359-.08084 4.9062l-.08071 1.2188h-10.609-10.609l.07828-1.0312zm-4.8795-12.276c.62002-.62002.18068-1.6932-.69318-1.6932-.51389 0-1 .48611-1 1s.48611 1 1 1c.24355 0 .49978-.11341.69318-.30682zm4.6625-9.0161c.72069-.42992 1.5193-1.8428 1.5193-2.6879 0-.48201-.45839-.90119-.87378-.79902-.47082.11580-1.091.77835-1.5061 1.609-.43487.87026-.47444 1.4715-.12016 1.8258.30166.30166.54102.31437.98071.05208z" fill="#000"/>
 </g>
</svg>
