<svg xmlns:rdf="http://www.w3.org/1999/02/22-rdf-syntax-ns#" xmlns="http://www.w3.org/2000/svg" height="64px" width="64px" version="1.1" xmlns:cc="http://creativecommons.org/ns#" xmlns:dc="http://purl.org/dc/elements/1.1/">
 <g transform="matrix(1.43 0 0 1.43 -.13147 -.62188)">
  <g stroke-miterlimit="4" stroke="#303042" stroke-width="1.5" stroke-dasharray="none">
   <path stroke-linejoin="miter" d="m22.5 11.625v-5.625" stroke-linecap="round" fill="none"/>
   <path stroke-linejoin="miter" d="m22.5 25s4.5-7.5 3-10.5c0 0-1-2.5-3-2.5s-3 2.5-3 2.5c-1.5 3 3 10.5 3 10.5" fill-rule="evenodd" stroke-linecap="butt" fill="#2b2b3c"/>
   <path stroke-linejoin="round" d="m11.5 37c5.5 3.5 15.5 3.5 21 0v-7s9-4.5 6-10.5c-4-6.5-13.5-3.5-16 4v3.5-3.5c-3.5-7.5-13-10.5-16-4-3 6 5 10 5 10v7.5z" fill-rule="evenodd" stroke-linecap="round" fill="#2b2b3c"/>
  </g>
  <g stroke-width="1.5" stroke-miterlimit="4" stroke-linecap="round" stroke-dasharray="none" fill="none">
   <path stroke-linejoin="miter" d="m20 8h5" stroke="#303042"/>
   <g stroke="#fff">
    <path stroke-linejoin="miter" d="m11.5 29.5c5.5-2.5 15.5-2.5 21 .5"/>
    <g stroke-linejoin="round">
     <path d="m11.5 37c5.5-2.5 15.5-2.5 21 0"/>
     <path d="m11.5 33.5c5.5-2 15.5-2 21 0"/>
     <path d="m32 29.5s8.5-4 6.026-9.6534c-3.879-5.85-13.026-1.847-15.526 4.653l.012 2.097-.012-2.097c-2.5-6.5-12.594-10.503-15.502-4.653-2.4975 5.6534 4.8482 9 4.8482 9"/>
    </g>
   </g>
  </g>
  <g fill="#000">
   <path d="m11.841 27.977c-2.2042-1.225-3.7591-2.807-4.3178-4.395-.1741-.494-.2237-.809-.2253-1.429-.00562-2.1776 1.301-3.7997 3.4118-4.2357.82910-.17126 1.387-.17520 2.3632-.01673 3.0242.49094 6.0943 2.5359 7.8439 5.2247.70955 1.0904.79832 1.3719.83180 2.6373l.02961 1.1195-.35355.000177c-.19446.000088-.98995.03989-1.7678.08841-2.6933.16802-4.787.54290-7.0711 1.2661-.11623.0368-.37125-.05205-.74455-.25941v.000013z"/>
   <path d="m10.774 31.547v-1.616l-.420-.261c-1.3296-.826-2.7853-2.099-3.6044-3.151-1.8407-2.365-2.1138-4.844-.8224-7.465.91570-1.8583 2.3084-3.0521 4.1877-3.5893.57570-.16459.91937-.20094 1.8964-.20062 1.2642.000442 1.822.08632 2.9571.45539 1.0002.32520 1.8758.74089 2.8485 1.3522.72720.45706.83703.50306.79043.33111-.11810-.43579-.15553-1.6444-.06735-2.1746.24927-1.4988 1.6974-3.3942 2.8592-3.7422l.33482-.10032v-1.3118-1.3118h-.8265c-.45457 0-.95297-.044087-1.1075-.097971-.51120-.17820-.65340-.84151-.25737-1.2005.14370-.13025.36367-.16549 1.184-.18967l1.0075-.029703.0088-.58902c.01425-.95303.16134-1.2442.66256-1.3114.26288-.035259.40006-.00436.56171.12654.19158.15513.21791.25744.25251.98113l.03863.80794h.96826c.95233 0 .97251.00425 1.2266.25837.31577.31577.33044.62026.04582.95115-.20625.23979-.24284.24806-1.2374.27963l-1.0249.032534v1.2955 1.2955l.41984.14939c.95576.34009 2.0541 1.5639 2.5607 2.8531.21592.54950.24325.73488.24436 1.6571.000707.57111.015 1.0385.0318 1.0386.0168.000088.13613-.07443.26516-.16564.43571-.30795 1.821-.95666 2.5327-1.186 1.1538-.37184 1.7011-.45474 3.0052-.45524 1.0082-.000354 1.374.03644 1.9743.19878 1.4502.39215 2.5487 1.0299 3.5951 2.0871 1.1052 1.1167 1.6145 2.0572 1.8705 3.4545.23611 1.2889.03189 2.4572-.67982 3.8891-.90946 1.8298-2.8237 3.7161-5.2795 5.2027l-.55243.33439v1.3803c0 1.3717-.0011 1.3791-.17196 1.1957-.09458-.10152-.48238-.28707-.86179-.41232-4.792-1.5821-12.667-1.8136-18.369-.54013-1.4185.31684-2.614.70596-2.8529.92856l-.19539.18203-.000159-1.6165h.0000010zm22.037-.87967c.28590-.15227.40808-.34959.41122-.66417.0025-.2482.06594-.31921.54562-.61060 2.1424-1.3015 3.9375-3.0847 4.7683-4.7368.53066-1.0553.73258-1.9635.67450-3.0336-.06721-1.2383-.33910-1.994-1.0128-2.8147-1.3866-1.6892-3.1976-2.5366-5.4068-2.5299-2.174.0065-4.041.61627-6.1639 2.013-1.371.90205-3.1287 2.7263-3.8755 4.0222l-.24524.42560-.44818-.69076c-.62832-.96840-2.523-2.8443-3.5894-3.5537-1.3857-.92189-2.7012-1.5296-4.159-1.9212-1.2364-.33217-3.1186-.39382-4.1397-.13559-3.5426.89584-5.3688 4.5802-3.9763 8.0221.55858 1.3807 2.0809 3.0809 3.6723 4.1013l.89595.57452.0061.36924c.0048.28943.05644.40883 0.239.55243.30338.23864.62948.23133 1.2503-.02802 1.389-.58031 3.3508-1.0619 5.4995-1.35 1.4673-.19675 5.7398-.22639 7.0711-.04905 3.0639.40817 4.961.92079 7.0711 1.9108.55062.25833.64142.27098.91179.12698z"/>
   <path d="m31.059 28.507c-1.639-.689-4.548-1.304-7.087-1.497l-.81126-.06183.08919-.23216c.05403-.14063.0653-.57054.02858-1.0904l-.06061-.85825.35787-.73274c1.5715-3.2177 4.7963-5.6652 8.1187-6.162 1.8841-.28169 3.5497.19598 4.8017 1.377.70913.66896 1.0108 1.2179 1.1463 2.0863.15531.99481-.10698 2.0419-.80710 3.2221-.38858.65504-1.8767 2.1452-2.7886 2.7923-.92744.65818-2.1544 1.3883-2.3251 1.3836-.07292-.002-.37123-.10401-.66291-.22664z"/>
   <path d="m10.774 35.263v-1.4296l.19887.17901c0.328.29524.47025.29874 1.3341.03284 2.697-.83020 5.9091-1.2417 9.6924-1.2417 3.7069 0 7.1251 0.43 9.5459 1.2009.86049 0.274 1.1856.27320 1.4624-.0036l.21695-.21695-.0027 1.4765c-.002 1.0978-.02709 1.4345-.09784 1.3128-.25535-.43936-2.9787-1.3272-5.2912-1.7251-2.0991-.36113-2.8009-.40935-5.922-.40688-3.1872.0025-3.9645.06393-6.1814.48845-2.1479.41131-4.3247 1.1322-4.7733 1.5808l-.18228.18228v-1.4296z"/>
   <path d="m19.834 40.263c-1.9707-.19538-3.8361-.57840-5.3917-1.107-1.2458-.42337-3.1773-1.3424-2.9145-1.3867.09593-.01618.57217-.18221 1.0583-.36895 1.5612-.59970 3.2731-.99136 5.6569-1.2942.92932-.11807 1.8647-.15721 3.7565-.15721s2.8272.03914 3.7565.15721c2.3837.30284 4.0956.69451 5.6569 1.2942.48614.18674.96206.35270 1.0576.36882.23926.04034-1.4897.88444-2.6815 1.3092-2.3395.83373-4.3091 1.1531-7.3475 1.1914-1.2396.01561-2.413.01261-2.6075-.0067z"/>
  </g>
 </g>
</svg>
