<svg xmlns:rdf="http://www.w3.org/1999/02/22-rdf-syntax-ns#" xmlns="http://www.w3.org/2000/svg" height="64px" width="64px" version="1.1" xmlns:cc="http://creativecommons.org/ns#" xmlns:dc="http://purl.org/dc/elements/1.1/">
 <g transform="matrix(1.43 0 0 1.43 .52392 -.4435)">
  <path stroke-linejoin="miter" d="m22 9c-2.208 0-4 1.792-4 4 0 .88510.29397 1.7122.78125 2.375-1.952 1.122-3.281 3.213-3.281 5.625 0 2.0339.94204 3.8391 2.4062 5.0312-2.999 1.058-7.406 5.547-7.406 13.469h23c0-7.922-4.407-12.411-7.406-13.469 1.464-1.192 2.406-2.997 2.406-5.031 0-2.412-1.329-4.503-3.281-5.625.487-.663.781-1.49.781-2.375 0-2.208-1.792-4-4-4z" fill-rule="nonzero" stroke-dashoffset="10" stroke="#303042" stroke-linecap="round" stroke-miterlimit="4" stroke-dasharray="none" stroke-width="1.5" fill="#fff"/>
  <path d="m9.7798 39.194c.10067-3.3735.91292-6.4627 2.3136-8.7994.96236-1.6054 2.5019-3.2784 3.7923-4.1211.36297-.23702.67346-.44207.68999-.45566s-.13568-.23439-.33825-.49065c-.87611-1.1084-1.4311-2.7736-1.4322-4.297-.0016-2.1988.89430-4.1121 2.617-5.5893l.34087-.29228-.19833-.55545c-.27221-.76236-.32839-1.9688-.12773-2.743.41016-1.5825 1.5903-2.8313 3.1711-3.3556.74681-.24768 2.1001-.22953 2.8809.038631 2.4659.84693 3.7918 3.5031 2.9703 5.9503l-.22829.68006.28204.24063c.15512.13234.33337.27107.39611.30828s.36461.37873.67082.75893c1.6319 2.0262 2.0587 4.6787 1.1457 7.119-.24036.64241-.71402 1.4635-1.0938 1.896-.18127.20645-.24337.33521-.17299.35867.36656.12219 1.7742 1.2638 2.5149 2.0396 1.498 1.5689 2.6372 3.5154 3.3423 5.7102.55089 1.715.78827 3.1729.90435 5.5543l.05332 1.0938h-12.263-12.263l.031307-1.0491zm22.944-.526c.09141-.23822-.22836-2.5552-.50243-3.6403-.67342-2.6664-1.9652-4.9241-3.7959-6.6341-.85102-.79492-1.6138-1.2763-2.7947-1.7638-.45424-.18751-.82289-.36533-.81922-.39517.0037-.02984.30594-.31541.67171-.63460 1.6323-1.4244 2.3325-2.9415 2.2457-4.8661-.08774-1.9475-1.0181-3.5073-2.7691-4.6429-.37862-.24554-.68892-.47755-.68956-.51558-.000625-.03803.15606-.31928.34821-.625.50412-.80208.66459-1.3636.61417-2.1493-.05205-.81113-.34150-1.4705-.89483-2.0387-1.7758-1.8232-4.8324-1.0354-5.4693 1.4097-.25818.99121-.13038 1.7082.48691 2.7317.19805.32837.35957.62937.35894.66889-.000625.03952-.29823.26512-.66132.50134-.66099.43002-1.4229 1.1362-1.7577 1.6293-.95513 1.4064-1.2778 3.0953-.88491 4.6316.32963 1.2888.90217 2.177 2.0998 3.2573.34375.31009.63581.59164.64903.62566.01321.03403-.40866.25001-.9375.47996-1.3278.57737-1.9764 1.022-3.0151 2.0671-2.1718 2.1851-3.4962 5.2203-3.8869 8.9072-.05573.52592-.07549.99802-.04391 1.0491.03924.06349 3.4334.09289 10.725.09289 9.8007 0 10.672-.01188 10.723-.14631z" fill="#000"/>
 </g>
</svg>
