<svg xmlns:rdf="http://www.w3.org/1999/02/22-rdf-syntax-ns#" xmlns="http://www.w3.org/2000/svg" height="64px" width="64px" version="1.1" xmlns:cc="http://creativecommons.org/ns#" xmlns:dc="http://purl.org/dc/elements/1.1/">
 <g transform="matrix(1.43 0 0 1.43 .51929 .2715)">
  <g stroke-miterlimit="4" stroke="#303042" stroke-linecap="round" stroke-dasharray="none">
   <path stroke-linejoin="miter" d="m22 10c10.5 1 16.5 8 16 29h-23c0-9 10-6.5 8-21" fill-rule="evenodd" stroke-width="1.5" fill="#fff"/>
   <g stroke-linejoin="round">
    <path d="m24 18c.38446 2.9113-5.5529 7.3686-8 9-3 2-2.8192 4.3429-5 4-1.0417-.94402 1.4134-3.0375 0-3-1 0 .18733 1.2317-1 2-1 0-4.0032 1-4-4 0-2 6-12 6-12s1.8859-1.9021 2-3.5c-.72605-.99437-.5-2-.5-3 1-1 3 2.5 3 2.5h2s.78178-1.9919 2.5-3c1 0 1 3 1 3" fill-rule="evenodd" stroke-width="1.5" fill="#fff"/>
    <path d="m9 23.5c0 .276-.2239.5-.5.5s-.5-.224-.5-.5.2239-.5.5-.5.5.224.5.5z" transform="translate(.5 2)" stroke-width="1.5" fill="#2b2b3c"/>
    <path d="m15 15.5c0 .828-.224 1.5-.5 1.5s-.5-.672-.5-1.5.224-1.5.5-1.5c.27614 0 .5.67157.5 1.5z" transform="matrix(.86602 .5 -.5 .86602 9.6926 -5.1734)" stroke-width="1.5" fill="#2b2b3c"/>
   </g>
   <path stroke-linejoin="miter" d="m37 39c1-20-5.5-27.5-12-28.5" stroke-width="1" fill="none"/>
  </g>
  <g fill="#000">
   <path d="m13.571 17.51c-.90276-.33922-.85071-1.5778.12690-3.0197.25902-.38203.63942-.75084.92876-.90046.26888-.13904.78995-.12564 1.0364.02665.59738.36920.52985 1.4447-.16361 2.6057-.56046.93831-1.3879 1.4909-1.9284 1.2878z"/>
   <path d="m8.6107 26.651c-.8252-.294-1.0944-1.299-.5226-1.95.24829-.28279.51188-.39612.92132-.39612.69512 0 1.1864.49154 1.1864 1.187 0 .56796-.27972.96876-.80562 1.1543-.32936.11621-.46431.11701-.77955.0046z"/>
   <path d="m14.26 39.164c.0061-2.1753.46749-3.8047 1.5262-5.3892.51735-.77429 1.0694-1.386 2.8799-3.1912 1.5776-1.5729 2.2415-2.4451 2.8386-3.7287.47424-1.0195.80506-2.2851.93554-3.579.03452-.34235.05246-.63277.03986-.64538-.0126-.0126-.14443.10891-.29294.27004-.37814.41024-1.8954 1.7761-2.6788 2.4115-.88029.71399-1.5009 1.1794-2.6657 1.9992-1.4827 1.0435-1.8606 1.4098-2.9597 2.8684-.86267 1.1448-1.3941 1.4995-2.3203 1.5485-.32771.01735-.62785-.000625-.76462-.04574-.26049-.08597-.64014-.49884-.69707-.75807l-.03913-.17814-.88611.03757c-.7138.031-.9653.018-1.2925-.065-1.2169-.311-2.0175-1.172-2.3693-2.547-.1607-.629-.2773-1.862-.2236-2.365.090143-.84174.57528-2.0442 1.8162-4.5017.89780-1.778 1.9944-3.7829 3.3415-6.1094.62980-1.0876 1.0036-1.6535 1.4861-2.25.64103-.79245 1.2616-1.8645 1.2616-2.1793 0-.07331-.06665-.28444-.14811-.46919-.22947-.52042-.28939-.92104-.28939-1.9347 0-1.0966.05214-1.2786.43987-1.5352.38668-.25589.92693-.27991 1.4022-.062342.55209.25275 1.4117 1.1356 2.0626 2.1182l.23805.35938h.58490c.32170 0 .58490-.023788.58490-.052863s.19509-.34826.43354-.70930c.48686-.73716 1.2094-1.4942 1.8158-1.9023.33888-.22811.45493-.27301.70562-.27301.84021 0 1.3461.71361 1.5785 2.2265.05742.37385.11334.71136.12427.75002.01093.038667.18383.090048.38421.11418 1.1098.13366 2.784.53213 3.9581.94208.85610.29891 2.3762 1.044 3.125 1.5317 2.8302 1.8434 4.8925 4.6129 6.3233 8.492 1.2411 3.3647 1.9494 7.6158 2.1775 13.069.06793 1.6241.08245 5.71.0216 6.0781l-.03874.23438h-12.211-12.211l.0016-.57812zm22.342-2.75c.04787-1.9382-.0286-4.5833-.18669-6.4572-.549-6.51-2.183-11.575-4.792-14.851-1.743-2.191-4.671-3.641-8.552-4.238-.464-.072-.949-.139-1.076-.151-.485-.043-.736-.380-.737-.9884-.001-.4294-.165-1.5152-.255-1.6832-.066-.1244-.090-.1112-.472.2674-.467.4619-.912 1.0839-1.234 1.7252-.33386.66509-.34571.66984-1.7236.69137-1.4687.02295-1.4256.04193-2.0628-.90932-.485-.7235-1.146-1.5152-1.265-1.5152-.04562 0-.05654.17445-.03376.53955.02881.46171.06736.60593.26723.99971.21809.42967.23148.48814.20212.88232-.06251.83919-.62862 1.9421-1.6283 3.1722-1.2629 1.554-5.2913 8.993-6.0765 11.221l-.23040.65377.035122.8125c.063706 1.4738.44694 2.3172 1.1944 2.6286.30620.12758 1.6086.14632 1.7545.02524.063899-.05303.090998-.20774.091243-.52091.0004625-.59295.095188-.90292.34910-1.1424.33876-.31949 1.017-.40071 1.463-.17520.37255.18835.60813.66520.53322 1.0793-.02291.12666-.18039.54483-.34994.92926-.32814.74398-.37369.93326-.20942.87023.05437-.02087.12531-.03794.15765-.03794.11151 0 .62245-.51998.97644-.99371 1.0184-1.3629 1.6875-2.0338 2.8236-2.8314 3.4915-2.4511 5.7826-4.5075 6.9409-6.2298.46647-.69363.70609-1.2866.73556-1.8201.03155-.57108.10491-.77759.33425-.94089.37406-.26636 0.84-.12784 1.0776.32034.21948.41401.04788 1.4287-.39764 2.3512-.24109.49923-.24722.52869-.24737 1.1875-.000562 2.4989-.41970 4.6317-1.2498 6.3597-.66843 1.3914-1.3261 2.2277-3.4425 4.3775-.94804.96298-1.892 1.9783-2.0977 2.2562-.72739.98276-1.1911 2.0918-1.3695 3.2757-.04925.32671-.08971.61510-.08991.64088-.000188.02578 4.6792.04687 10.399.04687h10.399l.04516-1.8281z"/>
  </g>
 </g>
</svg>
