<svg xmlns:rdf="http://www.w3.org/1999/02/22-rdf-syntax-ns#" xmlns="http://www.w3.org/2000/svg" height="64px" width="64px" version="1.1" xmlns:cc="http://creativecommons.org/ns#" xmlns:dc="http://purl.org/dc/elements/1.1/">
 <g transform="matrix(1.43 0 0 1.43 -.175 -.086)">
  <g stroke-linejoin="round" stroke="#303042" stroke-miterlimit="4" stroke-dasharray="none" stroke-width="1.5" fill="#fff">
   <g stroke-linecap="round">
    <path d="m9 13c0 1.1046-.89543 2-2 2s-2-.89543-2-2 .89543-2 2-2 2 .89543 2 2z" transform="translate(-1,-1)"/>
    <path d="m9 13c0 1.1046-.89543 2-2 2s-2-.89543-2-2 .89543-2 2-2 2 .89543 2 2z" transform="translate(15.5,-5.5)"/>
    <path d="m9 13c0 1.1046-.89543 2-2 2s-2-.89543-2-2 .89543-2 2-2 2 .89543 2 2z" transform="translate(32,-1)"/>
    <path d="m9 13c0 1.1046-.89543 2-2 2s-2-.89543-2-2 .89543-2 2-2 2 .89543 2 2z" transform="translate(7,-4.5)"/>
    <path d="m9 13c0 1.1046-.89543 2-2 2s-2-.89543-2-2 .89543-2 2-2 2 .89543 2 2z" transform="translate(24,-4)"/>
   </g>
   <path d="m9 26c8.5-1.5 21-1.5 27 0l2-12-7 11v-14l-5.5 13.5-3-15-3 15-5.5-14v14.5l-7-11 2 12z" fill-rule="evenodd" stroke-linecap="butt"/>
   <path d="m9 26c0 2 1.5 2 2.5 4 1 1.5 1 1 .5 3.5-1.5 1-1.5 2.5-1.5 2.5-1.5 1.5.5 2.5.5 2.5 6.5 1 16.5 1 23 0 0 0 1.5-1 0-2.5 0 0 .5-1.5-1-2.5-.5-2.5-.5-2 .5-3.5 1-2 2.5-2 2.5-4-8.5-1.5-18.5-1.5-27 0z" fill-rule="evenodd" stroke-linecap="butt"/>
  </g>
  <g stroke-linejoin="round" stroke="#303042" stroke-linecap="round" stroke-width="1px" fill="none">
   <path d="m11.5 30c3.5-1 18.5-1 22 0"/>
   <path d="m12 33.5c6-1 15-1 21 0"/>
   <path d="m10.5 36c5-1 18.5-1 23.5 0"/>
  </g>
  <path d="m19.928 39.948c-2.941-.104-4.943-.237-7.062-.470-2.1-.231-2.392-.320-2.9707-.898-.4311-.431-.6074-.791-.6401-1.305-.0347-.547.0478-.872.3259-1.285.1193-.178.2447-.470.2851-.664.12091-.5824.52732-1.3062 1.0308-1.8358l.45102-.47441.13256-.70247c.1546-.81923.15931-.79836-.35298-1.5634-.202-.301-.447-.685-.546-.855s-.535-.679-.9704-1.131c-.8570-.891-1.1315-1.324-1.2449-1.967-.0334-.189-.4851-2.931-1.0038-6.094-.5188-3.162-.9572-5.799-.9744-5.859-.023521-.08235-.097595-.10938-.29975-.10938-1.5588 0-2.79-1.1902-2.7959-2.7029-.00317-.80944.24827-1.4256.80267-1.9668.59397-.57990 1.1941-.79862 2.0756-.75648.48849.023355.61701.055679 1.027.25829 1.3356.66007 1.888 2.2229 1.2661 3.5814-.085758.18732-.25232.45921-.37015.60420l-.21422.26362 2.5711 4.0365c1.4141 2.2201 2.6188 4.1044 2.6772 4.1875.10014.14255.10628-.16510.10938-5.4781l.0033-5.6291-.34899-.14465c-.19864-.08233-.50688-.29082-.71547-.48395-.59559-.55141-.88030-1.1871-.88338-1.9723-.0032-.80944.24828-1.4256.80267-1.9668.59397-.57990 1.1941-.79862 2.0756-.75648.48849.023355.61701.055679 1.027.25829 1.359.67164 1.8936 2.2383 1.2403 3.6344-.21475.45891-.70592.97223-1.1415 1.1929-0.171.08665-.29830.17797-.28287.20292.01542.02496.96082 2.4216 2.1009 5.3259 1.7818 4.5391 2.1882 5.5365 2.1882 5.3702 0-.016.52031-2.6298 1.1562-5.8084.63594-3.1786 1.1561-5.8079 1.156-5.8428-.000125-.0349-.12923-.11651-.28690-.18136-.15766-.064846-.45140-.27042-.65274-.45682-.59517-.55102-.87989-1.1869-.88297-1.9719-.0032-.80944.24828-1.4256.80267-1.9668.59397-.57990 1.1941-.79862 2.0756-.75648.48849.023355.61701.055679 1.027.25829.81265.40163 1.3399 1.1182 1.4862 2.02.18515 1.1412-.41553 2.3164-1.4512 2.8392-.28153.14212-.36650.21533-.34314.29566.01708.05872.54307 2.6802 1.1689 5.8255.62581 3.1453 1.1573 5.741 1.1811 5.7682.03817.04357.61682-1.3524 3.5376-8.5344l.70560-1.735-.25728-.13126c-.142-.072-.407-.272-.590-.445-.561-.531-.840-1.1713-.843-1.9372-.0032-.80944.24828-1.4256.80267-1.9668.59397-.57990 1.1941-.79862 2.0756-.75648.48849.023355.61701.055679 1.027.25829 1.6836.83206 2.0428 3.0559.70617 4.3714-.22863.22501-.49245.40699-.75723.52234l-.40635.17703v5.4028c0 2.9715.01061 5.391.02358 5.3767.03292-.03636 5.0923-7.9789 5.2444-8.2331l.12393-.20703-.18571-.19922c-.41669-0.447-.65144-1.0736-.65408-1.7459-.0032-.80944.24828-1.4256.80267-1.9668.59397-.57990 1.1941-.79862 2.0756-.75648.48849.023355.61701.055679 1.027.25829.81265.40163 1.3399 1.1182 1.4862 2.02.26630 1.6414-1.044 3.1479-2.738 3.1479-.18184 0-.33062.01464-.33062.03253s-.41954 2.5562-.93231 5.6406-.95210 5.7893-.97630 6.0109c-.09682.88651-.38633 1.397-1.3512 2.3824-.35553.36309-.71969.77091-.80925.90625s-.37784.57749-.64062.98255c-.54439.83913-.55277.88131-.35897 1.8083.10677.51075.13526.56789.45571.91401.52885.57122.79832 1.2446.79973 1.9985.000625.32715.0283.43093.16159.60568.87533 1.1476.25284 3.037-1.0671 3.2389-1.4756.22570-4.3252.48806-6.5625.60419-1.2716.066-6.3254.12616-7.4062.08815zm6.625-1.5272c2.2891-.09312 5.8782-.40119 6.9738-.59858.21384-.03853.40116-.29035.40116-.53929 0-.15503-.28445-.63421-.48306-.81376-.18164-.16421-2.2289-.40606-4.6107-.54470-5.7681-.33572-12.983-.18876-16.969.34566-.76592.10269-.77551.10771-1.0662.55860-0.17.26371-.15297.37087.10415.65547.27514.30454.37489.33250 1.7745.49727 4.0805.48037 9.0209.6368 13.875.43933zm-13.938-3.2135c2.5377-.28026 5.5633-.40814 9.6562-.40814 4.3281 0 7.7096.15790 10.203.47642.45534.05817.84196.09169.85916.07448.0172-.0172-.01376-.18296-.06882-.36836-.08068-.27168-.17739-.41101-.49844-.71816l-.398-.382-.798-.104c-2.7613-.35923-5.4001-.5064-9.0795-.5064-3.6451 0-6.3402.14868-8.9534.49394-.38655.05107-.73637.09308-.77738.09336-.13598.000918-.94023.74517-1.1376 1.0527-.24349.37944-.24818.46867-.02224 0.423.09453-.01911.55156-.07667 1.0156-.12792zm.89975-2.4121c2.0838-.30122 5.6226-.49702 8.9753-.49661 3.4256.000437 6.1467.14717 8.7705.47299.44094.05476.81213.08913.82487.07639s-.02043-.29869-.0737-.63544c-.11473-.72516-.08089-1.0307.16865-1.5227.10072-.19861.18349-.37820.18393-.39910.0016-.07743-1.8065-.27230-3.4055-.36702-4.0294-.23869-8.8411-.23857-12.938.000313-1.0133.0591-3.3433.28969-3.3891.33541-.01007.01007.06855.18673.17471.39258.23239.4506.29229.94650.18828 1.5588-.04021.23673-.08785.47964-.10587.53980-.03864.12906.01477.13287.62542.0446v.000017zm-0.306-3.5864c4.1052-.55219 14.308-.55552 18.531-.006.36094.04696.79688.10303.96875.1246l.3125.03921.24461-.38813c.13454-.21347.57378-.72946.97610-1.1466.65616-.68040.99412-1.1216.91772-1.198-.04527-.04527-1.0102-.19841-2.2947-.36417-6.5123-.84042-13.47-.87355-20-.09522-.95891.11430-2.7784.37781-2.919.42276-.13514.04319-.13575.04824-.03178.26278.058307.12031.44758.57495.86505 1.0103.41747.43536.85365.95025.96928 1.1442l.21024.35263.28125-.03292c.15469-.01811.59062-.07454.96875-.12540v.0000010zm-2.0938-4.2879c.77344-.10498 1.4953-.20465 1.6041-.22148l.19787-.0306-2.2604-3.5543c-1.2419-1.957-2.2685-3.531-2.28-3.5-.019438.0524 1.1542 7.243 1.2103 7.4153.032623.10018-.094109.10937 1.5294-.11099zm24.9-3.4828c.33458-2.0195.62345-3.7281.64192-3.7969.0298-.11092.02313-.11444-.05926-.03125-.10314.10415-4.3429 6.7627-4.3987 6.9083-.02028.05284.000756.09186.0496.092.15032.000437 2.1965.31390 2.6161.40075.22344.04625.43681.08744.47416.09154.04218.0046.29847-1.3842.67625-3.6644zm-19.088 2.8907c.84219-.05401 1.562-.10426 1.5996-.11165.04824-.0095-3.4298-9.0107-3.7484-9.7009-.01587-.03437-.03107 2.1984-.03378 4.9617l-.0049 5.0242.32812-.03758c.18047-.02067 1.0172-.08177 1.8594-.13578zm13.311-4.7032-.0017-4.7969-1.8991 4.6562-1.8991 4.6562.22899.04327c.12594.0238.48212.04752.79149.0527.44492.0075 2.3243.12966 2.7031.17576.06192.0075.07777-.98566.07641-4.7874h-.000001zm-5.5859 4.4672c.0074-.0077-.47232-2.4328-1.066-5.3891-.59365-2.9562-1.0959-5.3328-1.1161-5.2812-.02021.05156-.50380 2.4422-1.0746 5.3125-.57084 2.8703-1.0511 5.2644-1.0672 5.3202-.02674.09256.16094.09928 2.1406.07656 1.1935-.01369 2.176-.03122 2.1833-.03896zm-17.956-11.064c.3698-.282.5061-.525.5315-.949.027959-.46657-.15357-.85254-.52356-1.1132-.76749-.54066-1.8407-.02988-1.9486.92742-.056264.49918.21181.97115.70380 1.2391.13267.07226.30831.09682.60065.084.33666-.01477.45445-.04963.63627-.18830zm33 0c.36971-.28199.50606-.52549.53144-.94906.02796-.46657-.15358-.85254-.52356-1.1132-.76749-.54066-1.8407-.02988-1.9486.92742-.05626.49918.21181.97115.70380 1.2391.13267.07226.30831.09682.60065.084.33666-.01477.45445-.04963.63627-.18830zm-8-3c.36971-.28199.50606-.52549.53144-.94906.02796-.46657-.15358-.85254-.52356-1.1132-.76749-.54067-1.8407-.029881-1.9486.92742-.05626.49918.21181.97115.70380 1.2391.13267.07226.30831.09682.60065.084.33666-.01477.45445-.04963.63627-.18830zm-17-0.5c.36971-.28199.50606-.52549.53144-.94906.02796-.46657-.15358-.85254-.52356-1.1132-.76749-.54067-1.8407-.029881-1.9486.92742-.05626.49918.21181.97115.70380 1.2391.13267.07226.30831.096823.60065.084001.33666-.014766.45445-.049626.63627-.18830zm8.5-1c.36971-.28199.50606-.52549.53144-.94906.02796-.46657-.15358-.85254-.52356-1.1132-.76749-.54067-1.8407-.029881-1.9486.92742-.05626.49918.21181.97115.70380 1.2391.13267.07226.30831.096823.60065.084001.33666-.014766.45445-.049626.63627-.18830z" fill="#000"/>
 </g>
</svg>
