<svg xmlns:rdf="http://www.w3.org/1999/02/22-rdf-syntax-ns#" xmlns="http://www.w3.org/2000/svg" height="64px" width="64px" version="1.1" xmlns:cc="http://creativecommons.org/ns#" xmlns:dc="http://purl.org/dc/elements/1.1/">
 <g transform="matrix(1.43 0 0 1.43 -.175 .2715)">
  <g stroke-miterlimit="4" stroke="#303042" fill="#fff" stroke-dasharray="none" fill-rule="evenodd">
   <g stroke-linejoin="round" stroke-linecap="butt" stroke-width="1.5">
    <path d="m9 39h27v-3h-27v3z"/>
    <path d="m12 36v-4h21v4h-21z"/>
    <path d="m11 14v-5h4v2h5v-2h5v2h5v-2h4v5"/>
   </g>
   <path stroke-linejoin="round" d="m34 14-3 3h-17l-3-3" stroke-linecap="round" stroke-width="1.5"/>
   <path stroke-linejoin="miter" d="m31 17v12.5h-17v-12.5" stroke-linecap="butt" stroke-width="1.5"/>
   <path stroke-linejoin="round" d="m31 29.5 1.5 2.5h-20l1.5-2.5" stroke-linecap="round" stroke-width="1.5"/>
  </g>
  <path stroke-linejoin="miter" d="m11 14h23" stroke="#303042" stroke-linecap="round" stroke-width="1px" fill="none"/>
  <path d="m8.4956 39.463c-.2120-.226-.2143-.247-.2143-1.986 0-2.2814-.10126-2.1496 1.6816-2.1895l1.2794-.02862.0013-1.6508c.0015-1.8532.03618-1.9937.56060-2.2695.25953-.13647.46558-.38754.90361-1.1011l.56742-.92428v-6.0133-6.0133l-1.4805-1.4824-1.4805-1.4824v-2.8353-2.8353l.20866-.16897c.19354-.15672.37289-.16876 2.4749-.16616 1.7191.00213 2.3027.030544 2.4174.11769.23416.17790.33493.54230.33493 1.2111v.61296h1.7678 1.7678v-.75532c0-.68409.02046-.77578.21695-.97227l.21695-.21695h2.7785c3.3776 0 3.1651-.074945 3.223 1.1366l.03863.80794h1.7482 1.7482l.03089-.80336c.046-1.1978-.085-1.143 2.721-1.143h2.2729l.21428.22794.21428.22794.02753 2.4016c.01514 1.3209.0017 2.5806-.02985 2.7994-.05342.37028-.15756.49869-1.508 1.8594l-1.4507 1.4617v6.0223 6.0223l.58608.9792c.41998.70168.63404.97920.75532.97920.09308 0 .26687.09763.38619.21695.21592.21592.21695.22544.21695 1.9887v1.7718h1.1976c1.2424 0 1.6329.08949 1.7527.40171.0302.07869.0549.93244.0549 1.8972v1.7541l-.23289.18319-.23289.18319h-13.761-13.761l-.21428-.22809zm26.77-1.9448-.02554-.75870-12.75-.01469-12.75-.0147 2e-7.77340 2e-7.77340h12.776 12.776l-.02554-.75870zm-3.0062-3.506-.02452-1.2595-9.7448-.02248-9.7448-.02248v1.282 1.282h9.7693 9.7693l-.02452-1.2595zm-1.13-2.805c0-.04776-0.165-.35601-.36668-.68501-.20167-0.329-.39346-.69761-.42620-.81915l-.05952-.22097-7.743-.02258-7.743-.02258-.22197.46452c-.12208.25549-.34714.67334-.50013.92856l-.27816.46404h8.6694c5.617 0 8.6694-.03057 8.6694-.08683zm-.86303-8.3543.02334-5.8778-7.8003.000013-7.8003.000012v5.8778 5.8778h7.7769 7.7769l.02334-5.8778zm1.3492-7.4688.88057-.88388h-9.9846-9.9846l.88057.88388.88057.88388h8.2234 8.2234l.88057-.88388zm1.6352-3.7589v-1.9028l-1.2595.024524-1.2595.024524-.02536.76105c-.02278.68382-.04816.78249-.25005.97227l-.22470.21122-2.6013.02587c-2.2532.02241-2.6417.0067-2.9037-.11764-.37488-.17789-.49150-.48434-.49150-1.2914v-.60553h-1.7678-1.7678v.78009c0 .72414-.01635.79546-.22795.99437l-.22795.21428-2.6226.02457c-3.3999.03186-3.3455.05409-3.3651-1.3749l-.0088-.64324-1.2595.024524-1.2595.024524-.02403 1.7653c-.01322.9709-.0045 1.8161.01932 1.8783.03486.09085 2.1468.11298 10.785.11298h10.742v-1.9028z" fill="#000"/>
 </g>
</svg>
