<svg xmlns:rdf="http://www.w3.org/1999/02/22-rdf-syntax-ns#" xmlns="http://www.w3.org/2000/svg" height="64px" width="64px" version="1.1" xmlns:cc="http://creativecommons.org/ns#" xmlns:dc="http://purl.org/dc/elements/1.1/">
 <g transform="matrix(1.43 0 0 1.43 -.13147 -.62225)">
  <g stroke-miterlimit="4" stroke="#303042" stroke-width="1.5" stroke-dasharray="none">
   <path stroke-linejoin="miter" d="m22.5 11.625v-5.625" stroke-linecap="round" fill="none"/>
   <path stroke-linejoin="miter" d="m22.5 25s4.5-7.5 3-10.5c0 0-1-2.5-3-2.5s-3 2.5-3 2.5c-1.5 3 3 10.5 3 10.5" fill-rule="evenodd" stroke-linecap="butt" fill="#fff"/>
   <path stroke-linejoin="round" d="m11.5 37c5.5 3.5 15.5 3.5 21 0v-7s9-4.5 6-10.5c-4-6.5-13.5-3.5-16 4v3.5-3.5c-3.5-7.5-13-10.5-16-4-3 6 5 10 5 10v7.5z" fill-rule="evenodd" stroke-linecap="round" fill="#fff"/>
  </g>
  <g stroke="#303042" stroke-linecap="round" stroke-miterlimit="4" stroke-dasharray="none" stroke-width="1.5" fill="none">
   <path stroke-linejoin="miter" d="m20 8h5"/>
   <path stroke-linejoin="miter" d="m11.5 29.5c5.5-2.5 15.5-2.5 21 .5"/>
   <path stroke-linejoin="round" d="m11.5 37c5.5-2.5 15.5-2.5 21 0"/>
   <path stroke-linejoin="round" d="m11.5 33.5c5.5-2 15.5-2 21 0"/>
  </g>
  <path d="m20.129 40.275c-2.082-.150-4.325-.613-6.098-1.259-1.516-.551-3.063-1.384-3.189-1.714-.045-.120-.082-1.809-.082-3.791v-3.5751l-.50823-.32322c-3.8018-2.418-5.6434-5.596-5.0126-8.649.43664-2.1139 1.8524-4.0886 3.5733-4.9839 1.0479-.54520 1.855-.72998 3.1849-.72921 2.0555.0012 3.9918.61812 5.9137 1.8841.36001.23715.66646.41928 0.681.40474s-.01403-.30335-.0635-.64180c-.31648-2.1655.85260-4.4573 2.7275-5.347l.55243-.26212v-1.2817-1.2817h-.97808c-1.0629 0-1.2582-.057523-1.4341-.42246-.14935-.30970-.10282-.56965.14335-.80091.17186-.16146.3241-.18785 1.2106-.20986l1.014-.025176.04419-.81484c.04846-.89338.12603-1.0444.58338-1.1359.21180-.042361.32839-.0056.52915.16684.23994.20610.26050.27443.30168 1.0025l.04419.78136 1.0343.024865c.99535.023928 1.0411.033537 1.2153.25499.22677.28829.23161.65447.01224.92569-.15772 0.195-.23877.21060-1.2374.23817l-1.0687.0295.0017 1.2963.0018 1.2963.62075.29164c.76644.36008 1.487 1.0713 2.0046 1.9787.47828.83838.64147 1.491.64147 2.5654 0 .47592.02369.86531.05265.86531s.15822-.07462.28726-.16582c.39811-.28138 1.7954-.94834 2.4001-1.1456 1.6043-.52345 3.4767-.63375 4.9056-.28899 2.4881.60037 4.68 2.5182 5.4072 4.7313.20262.61661.23490.86479.23661 1.8189.0018.97802-.02593 1.186-.24110 1.812-.47524 1.3825-1.2657 2.5715-2.5399 3.8205-.88243.86498-1.4651 1.3244-2.7966 2.2052l-.99437.65779v3.4066 3.4066l-.25193.23534c-.34991.32687-2.1277 1.1961-3.2027 1.566-2.9554 1.0168-6.2735 1.4243-9.6269 1.1823zm4.2426-1.5006c2.2322-.23255 4.7752-.86380 5.9716-1.4823l.34821-.18002-.26516-.10232c-.53306-.20569-2.3962-.62023-3.5692-.79411-3.212-.47615-6.4551-.47633-9.7332-.00053-1.1555.16771-3.0378.58555-3.5797.79467l-.26516.10232.30936.15952c1.1677.60212 3.834 1.2793 5.8937 1.4968.99363.10494 3.9056.10849 4.8897.006v-.000034zm-11.324-3.131c1.3634-.46371 3.752-.91130 5.9325-1.1116 1.3127-.12061 4.6941-.11970 6.0546.0016 2.1362.19049 4.6175.66419 6.0021 1.1458.79288.27580.75956.30798.75956-.73360v-.91520l-.64082-.18948c-1.5033-.44451-3.738-.81304-6.0201-.99282-1.7128-.13492-6.3269-.05504-7.8348.13564-1.8948.23961-3.6552.58867-4.7509.94198l-.28726.09263v.92122c0 .50667.03281.92122.07291.92122s.36057-.09784.71216-.21742zm1.6014-3.7099c4.2074-.82637 9.7632-.86351 14.26-.09534.81281.13885 2.4431.51042 2.7326.62282.14191.05509.15468-.02512.15468-.97142v-1.0315l-.59662-.27092c-1.6591-.75340-4.1833-1.3613-6.7396-1.6231-1.7469-.17893-5.2655-.13410-6.8943.08782-1.7119.23326-3.5176.65608-4.7951 1.1228l-.50823.18569v1.262 1.262l.64082-.16699c.35245-.09184 1.138-.26464 1.7457-.38399zm18.289-3.0255c.76702-.44513 2.1299-1.4616 2.8044-2.0915 1.7479-1.6324 2.595-3.2059 2.595-4.8206 0-1.4503-.48350-2.4608-1.7378-3.6322-1.9939-1.8621-4.8838-2.1951-7.803-.89937-2.2858 1.0146-4.2449 3.0321-5.276 5.4333l-.29752.69284v1.7053 1.7053l.77340.05877c2.9105.22118 6.4307 1.0563 8.0654 1.9134.40126.21039 0.401.21041.87612-.06532zm-20.319-.61064c2.2-.75576 4.7508-1.187 7.8419-1.3258l1.3479-.06053v-1.5909-1.5909l-.34846-.6296c-1.8689-3.3767-4.9217-5.7171-8.2585-6.3314-.72360-.13321-2.2047-.06956-2.8039.12050-1.0539.33426-1.9806.99614-2.581 1.8435-1.564 2.2071-1.6421 4.3624-.23442 6.4671.23281.34808.81435 1.0102 1.2923 1.4713.96054.92670 2.5558 2.0628 2.7694 1.9722.07292-.03091.51160-.18639.97485-.34553zm10.089-7.0427c.26730-.54221 1.1098-1.7432 1.5347-2.1876.49431-.51706.78487-1.6076.78943-2.9629.0028-.82488-.01689-.92610-.28612-1.473-.66414-1.3491-1.7331-2.0925-2.6526-1.8449-.68958.18568-1.5963 1.1618-1.9585 2.1084-.32037.83717-.20791 2.2431.30967 3.8715.16499.51909.33041.83455.60252 1.149.20630.23843.58874.74177.84987 1.1185.26113.37676.49897.68501.52854.68501.02956 0 .15669-.20882.28251-.46404z" fill="#000"/>
 </g>
</svg>
