<svg xmlns:rdf="http://www.w3.org/1999/02/22-rdf-syntax-ns#" xmlns="http://www.w3.org/2000/svg" height="64px" width="64px" version="1.1" xmlns:cc="http://creativecommons.org/ns#" xmlns:dc="http://purl.org/dc/elements/1.1/">
 <g transform="matrix(1.43 0 0 1.43 -.175 .53715)">
  <g stroke-linejoin="round" stroke="#303042" stroke-linecap="butt" stroke-miterlimit="4" stroke-dasharray="none" stroke-width="1.5" fill="#fff">
   <path d="m9 36c3.3853-.97233 10.115.43082 13.5-2 3.3853 2.4308 10.115 1.0277 13.5 2 0 0 1.6459.54151 3 2-.67705.97233-1.6459.98616-3 .5-3.3853-.97233-10.115.45849-13.5-1-3.385 1.458-10.115.028-13.5 1-1.3541.486-2.3229.472-3-.5 1.3541-1.945 3-2 3-2z" fill-rule="evenodd"/>
   <path d="m15 32c2.5 2.5 12.5 2.5 15 0 .5-1.5 0-2 0-2 0-2.5-2.5-4-2.5-4 5.5-1.5 6-11.5-5-15.5-11 4-10.5 14-5 15.5 0 0-2.5 1.5-2.5 4 0 0-.5.5 0 2z" fill-rule="evenodd"/>
   <path d="m25 10c0 1.3807-1.1193 2.5-2.5 2.5-1.381 0-2.5-1.119-2.5-2.5 0-1.3807 1.119-2.5 2.5-2.5s2.5 1.1193 2.5 2.5z" transform="translate(0,-2)"/>
  </g>
  <g stroke-linejoin="miter" stroke="#303042" stroke-miterlimit="4" stroke-dasharray="none" stroke-width="1.5" fill="none">
   <path d="m17.5 26h10" stroke-linecap="butt"/>
   <path d="m15 30h15" stroke-linecap="butt"/>
   <path d="m22.5 15.5v5" stroke-linecap="round"/>
   <path d="m20 18h5" stroke-linecap="round"/>
  </g>
  <path d="m6.7571 39.438c-.7551-.239-1.4687-.934-1.4687-1.43 0-.54021 1.186-1.7864 2.1814-2.2922.40623-.20640.71942-.30787 1.3811-.44743 1.1768-.24822 1.7512-.30396 3.7812-.36696 2.8761-.08926 4.9247-.18145 5.5065-.24782.57784-.0659 1.3524-.19617 1.325-.22283-.01047-.01017-.28622-.06386-.61278-.11930-1.8586-.31555-3.4646-.95216-4.1893-1.6607-.31229-.3053-.36385-.39269-.46093-.78125-.17238-.68993-.19347-1.1902-.06983-1.6562.05928-.22344.14468-.60963.18977-.85820.20488-1.1293.64866-1.987 1.4921-2.8839.17055-.18135.22975-.28332.17597-.30306-.04458-.01637-.29770-.19056-.5625-.38710-1.309-.97157-2.1511-2.4847-2.3932-4.3002-.08974-.67289-.03953-1.9936.10047-2.6425.24028-1.1138.74966-2.3388 1.384-3.3284 1.1546-1.8014 3.0941-3.493 5.2883-4.6128.35142-.17933.64536-.33093.65320-.33690.0078-.006-.12837-.16276-.30269-.34843-1.1892-1.2667-1.1561-3.2628.07468-4.4935 1.4649-1.4649 3.9519-1.1579 5.0223.62.33526.55685.43905.94838.43905 1.6562 0 .92225-.26734 1.6084-.87286 2.2402-.15957.16650-.28104.31028-.26994.31951.0111.0092.30374.16146.65032.3383.74850.38192 1.9242 1.1433 2.6199 1.6965 3.2855 2.6131 4.8456 6.48 3.9673 9.8334-.36982 1.4119-1.3194 2.7933-2.4109 3.5073-.20288.13270-.37949.24968-.39247.25994-.01298.01027.11047.16742.27435.34922.75960.84272 1.1845 1.6503 1.3741 2.6118.05761.29219.15037.68594.20612.875.19699.66799.061 1.912-.26128 2.3903-.19133.28392-.65942.62041-1.3163.94626-.77070.38229-1.569.63527-2.7362.86705-.54059.10735-.97622.20187-.96805.21003.0082.0082.26765.05823.57665.11126.91729.15742 1.978.22191 4.7181.28685 4.4157.10466 5.2962.25202 6.7589 1.1311.62303.37445 1.0423.68755 1.5497 1.1573.6258.57938.70217.86082.36976 1.3627-.21644.32676-.69690.71684-1.0847.88061-.33888.14314-1.1818.19218-1.6693.09713-.21628-.04217-.63230-.14618-.92449-.23113-1.0448-.30376-1.6343-.33657-5.9688-.33219-3.8192.0039-4.5981-.02277-5.6875-.19441-.53412-.08415-1.3884-.29394-1.5507-.38081-.08614-.0461-.19109-.0371-.37801.03243-.55961.20816-1.372.36428-2.5088.48208-.36719.03805-2.2642.06287-4.5989.06015-4.6928-.0055-4.7379-.0023-6.5185.46221-.68705.17922-1.4539.20920-1.8826.07362zm1.4431-1.48c2.0231-.53164 1.9924-.52921 6.4319-.50885 4.8196.0221 5.7453-.04169 7.2073-.49665.55336-.17219.67749-.19134.875-.13495.12659.03614.47948.13990.7842.23059 1.1925.35488 1.5981.37927 6.3835.38372 4.8162.0045 5.0789.02107 6.412.40473.73741.21222 1.2022.27642 1.463.20206l.18747-.05346-.43747-.32378c-.24061-.17808-.70466-.46067-1.0312-.62798-1.0198-.52247-1.6376-.61339-4.7188-.69439-3.1036-.08159-4.0116-.12258-4.954-.22361-1.5246-.16345-2.8689-.51363-3.8302-.99773l-.45167-.22746-.56293.26155c-1.8468.85806-3.2066 1.0462-8.5762 1.1865-2.519.06581-2.943.10150-4.1117.34607-.83061.17383-1.2718.37257-1.8211.82043-.42975.35035-.47570.43655-.27552.51679.23077.09249.49499.07614 1.0265-.06353zm16.745-4.962c1.7831-.20988 3.123-.59395 4.0661-1.1655.28153-.17062.3405-.23995.39785-.46772.03703-.14707.06733-.35338.06733-.45847v-.19107h-6.9688-6.9688v.23479c0 .32239.09823.63679.23202.74261.15635.12366.93132 0.519 1.2343.62964 1.0726.39174 2.6632.68785 4.2524.79168.71901.04697 2.8809-.021 3.6875-.11594zm4.1857-3.8609c-.23728-.80426-1.1671-2.0033-1.8222-2.3497-.09973-.05274-1.4048-.07218-4.8438-.07215l-4.7072.00004-.35734.28053c-.65076.51087-1.372 1.5122-1.5199 2.11l-.04252.17188h6.6672 6.6672l-.04149-.14062zm-1.061-4.139c.38103-.18947.62790-.37536 1.0375-.78125 1.0021-.99293 1.4336-2.1124 1.4357-3.7246.0019-1.5322-.47049-2.9638-1.4628-4.433-.74123-1.0974-2.3826-2.5899-3.7604-3.4194-.52682-.31718-1.7123-.90622-2.3052-1.1454l-.50009-.20174-.40390.15203c-.22214.08362-.71595.30318-1.0974.48792-3.8679 1.8735-6.1872 4.6981-6.543 7.9683-.25642 2.357.93591 4.5677 2.8344 5.2554.31274.11328.55301.11802 5.2964.10454l4.9688-.01413.5-.24863zm-4.84-15.416c.61268-.26357 1.0036-.88139 1.0036-1.586 0-1.7574-2.2721-2.3938-3.2263-.90355-.49042.76595-.25341 1.8323.52483 2.3611.50631.34407 1.0933.38848 1.6978.12843z" fill="#000"/>
  <path d="m22.195 21.154c-.06875-.02814-.18125-.11360-.25-.18990-.11134-.12358-.12841-.25242-.15625-1.1793l-.03125-1.0405-1.0151-.01717-1.0151-.01717-.21929-.21929c-.24768-.24768-.28877-.52447-.12489-.84137.15653-.30269.29363-.33998 1.3744-.37375l1-.03125.03125-1c.03377-1.0807.07106-1.2178.37375-1.3744.22621-.11698.38387-0.119.64874-.0083.34798.14540.41501.38287.41501 1.4703v.94368h.97473c1.0681 0 1.2246.0415 1.423.37749.12764.21608.13016.44969.0074.68706-.16756.32403-.35558.37295-1.4333.37295h-.97185v.97185c0 1.0511-.04283 1.2315-.33836 1.4251-.16639.10902-.48459.12920-.69289.04395z" fill="#000"/>
 </g>
</svg>
